<svg
    xmlns="http://www.w3.org/2000/svg"
    viewBox="0 0 24 24"
    width="20"
    height="20"
    aria-hidden="true"
>
    <path
        fill="currentColor"
        d="M12 .5C5.73.5.5 5.74.5 12.03c0 5.11 3.29 9.44 7.86 10.97.58.1.79-.25.79-.56
        0-.27-.01-.99-.02-1.94-3.2.7-3.88-1.54-3.88-1.54-.52-1.33-1.27-1.69-1.27-1.69
        -1.04-.71.08-.7.08-.7 1.15.08 1.76 1.19 1.76 1.19
        1.02 1.76 2.68 1.25 3.33.96.1-.74.4-1.25.73-1.54
        -2.55-.29-5.23-1.29-5.23-5.73 0-1.26.45-2.29 1.18-3.1
        -.12-.29-.51-1.47.11-3.06 0 0 .96-.31 3.14 1.18
        .91-.25 1.88-.38 2.85-.38s1.94.13 2.85.38
        c2.18-1.49 3.14-1.18 3.14-1.18.62 1.59.23 2.77.11 3.06
        .73.81 1.18 1.84 1.18 3.1 0 4.45-2.69 5.43-5.25 5.72
        .41.36.77 1.07.77 2.15 0 1.55-.01 2.8-.01 3.18
        0 .31.21.67.8.56C20.71 21.46 24 17.14 24 12.03
        24 5.74 18.27.5 12 .5z"
    />
</svg>
